<?xml version="1.0" encoding="UTF-8" standalone="no"?>
<!DOCTYPE svg PUBLIC "-//W3C//DTD SVG 1.1//EN" "http://www.w3.org/Graphics/SVG/1.1/DTD/svg11.dtd">
<svg width="100%" height="100%" viewBox="0 0 837 200" version="1.1" xmlns="http://www.w3.org/2000/svg" xmlns:xlink="http://www.w3.org/1999/xlink" xml:space="preserve" xmlns:serif="http://www.serif.com/" style="fill-rule:evenodd;clip-rule:evenodd;stroke-linejoin:round;stroke-miterlimit:2;">
    <g transform="matrix(1.406959,0,0,1.404494,0,0)">
        <path d="M102.5,139.3C102.5,139.6 102.6,139.5 102.3,139.5C102.3,138.8 102.2,139.5 102.5,139.3ZM138.1,0L138.6,0C139.7,0.1 140.5,0.9 140.7,1.9C141,3.3 140.6,2.4 141.3,3.5C141.9,4.4 141.8,5.8 140.9,6.6C139.8,7.6 138.3,6.6 135.6,7.8C134.8,8.2 135.1,8.3 134.6,8.9C134.2,9.4 133.9,9.5 133.4,9.9C132.5,10.5 132.2,11.4 131.3,12C130.9,12.3 130.4,12.5 130,12.8C128.2,14 127.8,14.3 125.2,14.3C125.4,15.2 126.4,16.5 126.8,18.2C128,24 121.1,28.9 115.2,23.4C114.3,22.5 113.5,21.4 112.6,20.5C109,17.1 107,19.9 108,23C108.4,24.4 109.2,25.5 109.9,26.6C110.6,27.7 111.4,28.7 112.2,29.8L122.8,41.2C123.3,41.7 123.6,42.1 124.1,42.7C125.4,44.1 126.7,45.7 127.8,47.3C128.2,47.9 128.5,48.3 128.9,48.9C131.8,53.6 133.5,58.2 131.7,63.8C128.8,73.2 118.5,78 109,74.8C108.5,74.6 107.3,74.1 107,74.2L103.2,75.9C98.8,77.5 93.5,78.1 88.9,76.8C87.5,76.4 85.8,75.5 85.1,75.3C84.4,76.5 83.1,77.5 81.9,78.2C76.4,81.7 71.9,81.2 68.3,82.9C70.3,86.7 75.8,87.6 79,85.1C80.2,84.1 80.3,82.3 81.9,82C86.5,81.2 85.5,88.9 79.7,91.9C75.7,93.9 70.9,93.7 67,91.5C64.4,90.1 63.2,88.4 62.6,87.9C62,89.2 61.8,91.5 62.3,93.1C64.2,99 73.8,97 78.5,96.1C83.6,95.1 88.5,93.6 93.6,92.9C96.3,92.5 99.7,92.3 102.3,92.6C107,93.2 111.6,95.2 113.8,99.5C115.5,102.8 115.6,106 114.5,109.5C113.4,112.7 111.5,114.5 108.7,115.9C109.4,116.9 109.9,117.2 110.3,118.6C111.1,121 110.2,123.2 110.5,124.2C110.8,124.9 110.9,125 111,125.9C111.2,127.4 109.8,130.9 108.9,132C108.3,132.7 108.5,132.4 108.1,133.4C107.6,134.6 106.9,134.8 106.8,136.2C106.7,136.7 106.5,137.5 106.6,138C106.8,139.1 107.6,140 106.8,141.3C106.5,141.9 105.9,142.4 105.1,142.5L104.5,142.5C104.3,142.5 104.1,142.4 103.9,142.3C102.8,141.8 103.7,141.9 102.4,142.1C101.9,142.2 101.3,142 100.9,141.7C100.1,141.2 99.5,140 100.1,138.7C100.7,137.4 101.1,137.3 101.4,135.8C101.5,134.9 101.7,134.7 101.4,134.1C101.1,133.5 100.9,133.2 100.9,132.5C100.8,131.3 100.9,131.7 100.5,130.7C100.1,129.7 100.1,128.3 100,127.4C99.9,126.7 99.9,126 100,125.3C100.1,124 100.8,123.4 101.4,122.5C100,122.8 98.1,122.4 96.9,122C95.7,121.6 94.5,120.7 93.9,119.7C92.2,117.3 92.5,113.8 94.3,111.9C97.9,108.1 104.6,109.3 105.1,106.8C105.5,104.9 104.3,104.1 103.1,103.6C98.9,102 88.7,104.8 85,105.7C78.1,107.4 73.8,108.5 66.7,108.5C54.6,108.5 46.8,95.7 52.5,84.1C53.6,81.8 55.4,79.8 57.1,78.2C57.6,77.8 58.3,77.5 58.4,76.8C58.8,74.2 58.3,73.8 59.4,70C60.2,67.2 61.2,64.9 62.7,62.8C63.3,61.9 64.3,60.6 65.1,59.9C65.8,59.3 67.3,57.9 68.1,57.7C68.1,57 67.7,56.1 67.6,55.3C66.8,51.3 67.8,47 69,43.4C69.3,42.4 69.8,39.7 70.1,39C68.5,39 68,39.2 66.8,39.7C65.9,40.2 65.1,40.7 64.5,41.4C60.6,46.2 63.9,49.1 64,50.2C64.2,51.4 63.3,52.4 62.6,52.7C60.6,53.6 58.4,51 57.7,50C56.6,48.2 56.1,46.3 56.5,43.6C57.1,39.3 59.3,36.2 62.7,33.9C63.8,33.2 66.7,31.7 68.3,31.7C68,30.5 65.7,29.3 64.6,28.9C62.6,28.2 60.6,29 59.5,29.9C57.2,31.8 55.6,34.8 54.5,37.9C52.2,44.3 50.6,51.2 47.9,57.5C46.9,59.9 45.8,61.8 44.3,63.8C42.9,65.7 41.2,67.2 39.2,68.4C32.7,72.2 24.4,68.7 22,62.8C21.2,60.8 21.1,60 21.1,57.3C18.9,58.4 16.1,57 14.5,55.7C12.3,53.9 11.4,55.5 9.1,52.3C8.8,51.8 8.4,51.6 8,51.1C7.4,50.3 7.1,49 6.4,48.2C5.2,46.9 6.3,47 4.6,45.6C2.3,43.8 1.3,44.9 0.3,43.3C-0.4,42 0,41 0.9,40.2C1.2,40 1.1,40.1 1.3,40C2,39.4 1.8,38.4 3,37.8C5.7,36.6 6.1,39.8 7.3,40.8C8,41.4 8.4,41.9 9.4,42C10.8,42.1 11.2,42.7 12.9,43C14,43.2 16.5,44.5 17.4,45.1C18.4,45.8 18.6,46.4 19.2,47.5C20,46.9 21.4,42.7 25.5,42.6C29.1,42.5 31.2,44.3 32.1,47C33.8,51.8 27.9,58.6 32.4,59.5C37.6,60.6 42,42.3 43.3,37.5C43.7,36.2 44.2,34.7 44.7,33.4C47.3,25.6 52,17.3 61.3,16.9C62,16.9 62.1,16.8 62.5,16.8L66.1,17.3C73.2,19.1 77.8,24.3 79.6,31.3C80,32.8 79.6,33.3 81,34.1C83,35.3 84.6,36.9 86.2,38.5C87.6,39.9 88.6,41.6 89.6,43.3C91.1,45.7 92,48.9 92.1,51.8C93.9,52.2 95.3,52.7 96.9,53.6C99.7,55.1 101.7,57.4 103.9,59.6C104.6,60.3 106.3,62.4 107.2,62.7C107.3,62.2 107.6,61.9 107.8,61.3C109,57.8 107.1,53.8 103.8,52.4C102.3,51.8 101.6,52.3 100.6,52C97.8,51.1 98.2,47.2 103.3,46.7C109.4,46.1 114.4,52.4 115.2,58.2C115.4,60 115.2,61.9 114.8,63.5C114.7,64 114.5,64.5 114.5,65C116.1,65 118.3,63.7 119,62.8C123.1,57.9 116.9,51.2 113.8,47.5L110.6,44.1C108.8,42.3 105.3,38.4 103.6,36.3C103.3,36 103.2,35.8 102.9,35.5C99.6,31.2 94.7,23.4 98.3,16.2C100.6,11.6 105.7,8.8 111,9.5C114.1,9.9 114.5,11 115.7,11.3C116.2,9.1 117.8,7.7 119.7,6.7C122.3,5.4 120.4,7 122.3,5.1C123.2,4.2 123.6,3.9 125,3.6C125.6,3.5 126.3,3.4 126.8,3.3C128.1,3.1 131.5,3.1 132.6,3.2C133.3,3.3 133.8,3 134.3,2.8C136.7,1.5 136.7,0.1 138.1,0ZM104.6,139.6C104.7,139.8 104.8,139.7 104.6,140L103.7,138.2C102.9,138.6 103.1,138.9 102.4,139.3C103.1,137.3 103.4,138.9 103.9,133.7C103.5,133.2 103.1,133.1 103,132.2C102.8,130.2 102.2,129.8 102.2,128.1C102.2,127.2 102,126.8 102.1,126C102.2,124.4 103.5,124 103.8,122.8C104.9,118.1 96.5,122.7 95,117.3C93.3,111 102.9,112 105.9,109.4C108,107.7 107.4,104.3 105.7,102.7C102.3,99.6 93.9,101.2 89.5,102.2C80.2,104.3 65.8,109.6 58,103.3C54.9,100.8 51.8,95.9 52.9,89.5C53.6,85.2 57,80.2 60.7,78.2C60.4,73.5 61.5,69.5 63.4,65.9C65,62.9 67.8,59.5 71.2,58.6C71,57.9 70.4,57.3 70.1,56.3C69.1,53.6 69.4,50.4 70,47.8C70.8,44.2 72.4,41.1 72.4,37.2C71.7,36.2 67.5,36.9 66.5,37.3C64.7,38 63.4,39.1 62.5,40.2C61.5,41.5 60.7,42.9 60.4,44.9C60,47.7 60.7,48.3 61.5,50.5C60.8,50.2 59.9,49.1 59.5,48.4C56.6,42.9 61.7,33.6 71.9,33.6C71.9,30.9 67.8,27.1 64.5,26.5C59.6,25.5 56.8,29.1 55.1,31.5C48.9,40.3 47.6,68 33,67.8C28.6,67.7 25.5,64.9 24.2,62C23.3,60 23.3,58.1 23.8,55.8C24.4,53.1 25.8,51.3 25,50.6C24.3,50.7 24.1,51.3 23.8,51.9C23,53.6 21.8,55.1 19.6,55.4C17.9,55.6 16.8,54.8 15.9,54.1C15.4,53.7 15.1,53.2 14.4,53C12.9,52.5 11.9,52.9 11,51.3C10.5,50.5 10.3,50.5 9.8,49.9C9.4,49.4 9.3,48.8 9,48.1C8.6,47.4 8.3,47.2 8,46.7C7.3,45.6 8.3,45.7 7.2,44.9C5.2,43.4 4.9,42.7 2.3,42.2L4.3,42.1L4,40.1C4.5,41.5 5.1,42.1 6.3,43C9.3,45.5 7.9,43.9 9.7,44.4C10.4,44.6 10.7,45 11.7,45.2C12.6,45.4 13.1,45.3 13.8,45.8L15.5,46.7C17.5,47.7 17.1,50.8 19.4,50.7C20.8,50.7 21.2,49 21.9,47.9C23.3,45.7 25.6,43.9 28.7,46C31.3,47.8 29.7,51.7 29,54.2C27.9,57.8 28.1,60.2 31,61.6C36.3,64.1 40.1,55.6 41.6,51.8C45.2,42 47.4,27.3 54.3,22.1C58.9,18.7 65.3,18.2 70.5,21.5C72.7,22.9 74.3,24.6 75.6,26.9C78,31.1 77.4,34.6 78.4,35.2C80,36.3 80.7,36.3 82.7,38.1C87.1,42 90.5,47.3 89.7,54.1C94.5,53.8 97.7,56.6 100,58.7C100.8,59.4 101.2,60 101.8,60.7C104.4,63.4 104.6,63.6 107.6,65.8C108.6,65.1 109.8,63 110.2,61.3C111.2,57.5 109.5,53.6 106.6,51.3C104.7,49.8 103.5,49.9 101.3,49.6C106.3,46.6 113.5,53.1 112.8,60.9C112.6,63.7 111.8,64.9 110.8,67C113.5,68.5 119.3,66.3 121.3,63.3C123.6,59.8 122.1,55.2 120.2,52.1C119,50.2 117.6,48.3 116.2,46.8L108.3,38.2C105.4,35.3 102.4,31.4 100.6,27.4C96.2,17.5 103.5,9.9 111.3,11.7C115.9,12.8 118,17.5 118.9,17.9C120.8,18.7 118.4,15.2 118.2,14.6C117.2,11.9 118.2,9.5 120.9,8.4C123.2,7.5 122.1,8.4 123.8,6.5C124.7,5.5 125.9,5.5 127.4,5.2C128.4,5 128.8,5.2 129.7,5.3C130.5,5.4 131.1,5 131.8,5.1C132.8,5.2 132.4,5.7 133.6,5.3C134.5,4.9 136.3,4.4 137,3.8C137.5,3.4 137.6,3 138.1,2.6C137.9,3.2 137.5,3.6 137.3,4.1C137.7,4.4 138.5,4.5 139.1,4.6C137.5,4.9 137.6,4.3 135.7,5.1C134.8,5.5 133.8,5.7 133.1,6.2C132.8,7.1 132.9,7.3 132.1,7.8C131,8.5 130.5,9.7 129.4,10.3C129.1,10.5 128.8,10.5 128.6,10.7C128.2,10.9 128.2,11 127.9,11.3C126.3,12.6 125.2,11.4 123.6,11.9C122.2,12.3 121.8,13.7 122.6,15C124,17.2 125.4,20 123.2,22.3C120.8,24.8 117.8,23.1 116.2,21.4C115,20 112.9,17.4 110.6,16.7C107.7,15.9 105.1,18.5 105.1,21.2C105.1,25.7 109.6,31.2 112.5,34.1C112.9,34.5 113.3,35 113.7,35.5C114.1,36 114.6,36.3 115,36.8C116.7,38.6 119.8,41.6 121.2,43.4L123.5,46.1C126.2,49.3 129.1,53.4 129.6,57.8C130.4,64.5 126.4,69.2 122.8,71.4C119.2,73.6 114.5,74.1 110.2,73C108.9,72.7 107.5,71.9 106.4,71.7C105.6,72.1 105.1,72.6 104.1,73.1C103.3,73.5 102.3,73.9 101.5,74.2C96.7,75.8 90.9,76.1 86.3,73.7C85.5,73.3 84.8,72.7 84.1,72.3C82.2,77.4 75.2,78.7 70.3,80C67.7,80.7 66.4,81.5 65,81.9C65.2,82.9 65.6,83.8 66.1,84.6C67.6,87 69.4,88.5 72.6,89C76.7,89.7 80.3,88.1 82.2,84.6C82.6,89.6 76,91.6 72,91.1C67.4,90.5 64.6,87.7 62.3,84.1C60.2,86.1 58.5,90.5 59.9,94.4C63.8,104.7 83.6,97.2 91.6,95.8C100.2,94.3 108.6,94.8 111.7,101.6C113.3,105.2 112.2,110.1 110,112.2C105.5,116.4 101.1,114.8 100.4,116.2C100.8,117.2 102.3,116.6 103.5,116.7C107,117 108.5,119.6 107.6,123.4C107.3,124.7 108.2,125.2 108.2,126.5C108.2,127.4 107.6,128.5 107.3,129.5C106.9,130.7 106.3,130.9 105.8,131.8C105,133.5 105.8,132.9 104.2,134C104.1,135.1 103.9,136 103.8,137.1C104,138.3 104.4,138.3 104.6,139.6ZM577.5,65.4L556.3,65.4L556.3,43.5L578.4,43.5C583.6,43.5 587.6,47.5 587.6,52.4C587.6,56.8 588.1,59.9 584.7,63.1C582.9,64.6 580.8,65.4 577.5,65.4ZM548.9,36.7L548.9,101.3C548.9,101.7 549,101.8 549.4,101.8L556.3,101.8L556.3,72.8L569.4,72.8C569.9,72.8 571.3,75.4 571.7,76.2L580.1,90.8C580.9,92 581.5,93.2 582.2,94.5L586.5,101.8L594.9,101.8C592.2,96.7 588.3,90.6 585.6,85.6C584.8,84 578.4,73.4 578.3,72.8C579.3,72.8 580.9,72.6 581.9,72.4C583.1,72.2 584.1,71.8 585,71.4C590.8,69 594.9,62.9 594.9,56.6L594.9,52.5C594.9,43.6 587.6,36.3 578.7,36.3L549.4,36.3C549.1,36.2 548.9,36.3 548.9,36.7ZM211.5,65.4L190.3,65.4L190.3,43.5L212.6,43.5C217.4,43.5 221.5,47.5 221.5,51.7C221.5,55.9 222.1,60.3 218.5,63.1C217.5,63.9 216.9,64.3 215.6,64.8C214.4,65.2 213,65.4 211.5,65.4ZM183,101.7L190.3,101.7L190.3,72.7L203.4,72.7C203.9,72.7 204.1,73.4 204.6,74.3C205,75 205.3,75.4 205.7,76.1C207.3,79 209.4,82.3 210.9,85.2L220.4,101.7L228.8,101.7C228.6,100.8 225.4,95.7 224.7,94.5L219.5,85.5C217.3,81.6 214.1,76.5 212.1,72.7C214.4,72.7 217.1,72.2 218.8,71.4C219.8,71 220.6,70.6 221.4,70C223.6,68.5 225.9,66.1 227.1,63.8C229.3,59.6 228.8,56 228.8,51.3C228.8,48.3 227.4,45 225.7,42.8C222.7,38.7 218.1,36.2 212.8,36.2L183,36.2L183,101.7ZM366,43.5L399.6,43.5L387,65.3C382.8,72.4 378.6,80.2 374.4,87.1C373.7,88.3 373,89.4 372.3,90.7C371.6,92 370.9,93.1 370.2,94.4L366,101.8L408,101.8C408.5,100.9 412,95.2 412.1,94.5L378.6,94.5L380.7,90.9C381.4,89.6 382.1,88.5 382.8,87.2C386.2,81.5 389.8,74.8 393.2,69.1L405.8,47.3C406.4,46.3 411.8,37.1 412,36.3L366,36.3L366,43.5ZM270.8,101.7L278.7,101.7C278.9,100.9 279.5,99.7 279.8,98.8L283.3,90.2C284.8,86.4 286.4,82.6 288,78.7L297.2,55.7C297.8,56.4 312.9,94.3 314.7,98.7C315.1,99.6 315.6,100.8 315.8,101.7L323.7,101.7L298,38.2C297.9,37.9 297.8,37.6 297.6,37.2C297.5,36.9 297.5,36.9 297.4,36.7C297.3,36.4 297.3,36.4 297.1,36.2L277.3,85.3C276.2,88 275.1,90.7 274,93.4C273.5,94.7 272.9,96.2 272.3,97.5L270.8,101.7ZM457.5,43.5L499.4,43.5C499.6,42.4 503.3,37.2 503.4,36.2L457.6,36.2L457.5,43.5ZM457.5,101.7L499.4,101.7C499.5,101.1 502.9,95.5 503.5,94.4L457.5,94.4L457.5,101.7ZM457.5,72.2C457.5,72.6 457.6,72.7 458,72.7L498.9,72.7C499.4,72.7 499.7,71.8 500.2,71.1L502.4,67.3C502.8,66.6 503.1,66 503.5,65.4L457.5,65.4L457.5,72.2Z" style="fill:rgb(0,255,0);fill-rule:nonzero;"/>
    </g>
    <g transform="matrix(1.406959,0,0,1.404494,0,0)">
        <path d="M69,72.1C69.3,70.9 70.6,69.6 71.2,68.8C71.7,68.2 71.6,68.4 72.1,67.9C73.1,67 74.2,66.2 75.6,65.9C76.3,65.8 76.5,66 76.9,66.3C76.9,68.4 75.4,69.2 73.7,70C72.9,70.5 69.9,72 69,72.1ZM65,76.1C67.1,75.5 72.8,73.3 74.7,72.2C76.3,71.3 77.5,70.5 78.5,69.3C82.1,64.9 76,60.4 69.6,67.2C67.7,69.2 65.5,72.3 65,76.1ZM80.3,54.7L79.8,54.7C77.9,54.7 78.5,48.5 78.6,47.4C78.7,46.6 78.9,45.7 78.9,44.8L79,45C79.1,45.2 79.1,45.1 79.2,45.3C81.5,48.6 82,54.7 80.3,54.7ZM77.5,39.6C77,43.9 74.6,51.8 77.3,55.7C78.2,57 79.9,57.7 81.6,56.7C85.2,54.4 83.3,46.8 80.6,42.8C79.9,41.9 78.2,39.7 77.5,39.6ZM88.4,63.8C88.4,61 93.6,64.2 94.1,64.6L97.7,67.3C95.4,67.3 93.8,67.1 92.1,66.5C91.3,66.3 88.4,65 88.4,63.8ZM103,68.8L99.5,65.8C87.5,55.4 83.9,62.6 87.5,66.3C91.6,70.5 97.8,70 103,68.8Z" style="fill:rgb(0,255,0);fill-rule:nonzero;"/>
    </g>
    <g transform="matrix(1.406959,0,0,1.404494,0,0)">
        <path d="M65,76.1C65.5,72.3 67.7,69.2 69.6,67.2C76,60.4 82.1,65 78.5,69.3C77.5,70.5 76.3,71.4 74.7,72.2C72.8,73.3 67.1,75.5 65,76.1ZM103,68.8C97.9,70 91.7,70.6 87.5,66.3C83.8,62.6 87.5,55.3 99.5,65.8L103,68.8ZM77.5,39.6C78.2,39.7 79.9,41.9 80.6,42.8C83.3,46.7 85.2,54.3 81.6,56.7C79.9,57.8 78.2,57.1 77.3,55.7C74.6,51.8 77,43.9 77.5,39.6ZM102.5,139.3C103.2,139 103,138.6 103.8,138.2L104.5,139.6L104.7,139.6C104.5,138.3 104.1,138.3 104.3,136.8C104.5,135.7 104.6,134.8 104.7,133.7C106.3,132.6 105.5,133.1 106.3,131.5C106.8,130.5 107.4,130.4 107.8,129.2C108.1,128.3 108.7,127.1 108.7,126.2C108.6,125 107.7,124.4 108.1,123.1C109,119.3 107.5,116.8 104,116.4C102.8,116.3 101.2,116.8 100.9,115.9C101.6,114.5 105.9,116.1 110.5,111.9C112.8,109.8 113.8,104.9 112.2,101.3C109.1,94.5 100.7,94 92.1,95.5C84.1,96.9 64.3,104.5 60.4,94.1C58.9,90.2 60.6,85.8 62.8,83.8C65.1,87.4 67.9,90.2 72.5,90.8C76.4,91.3 83,89.3 82.7,84.3C80.8,87.8 77.2,89.4 73.1,88.7C70,88.2 68.2,86.7 66.6,84.3C66.1,83.5 65.7,82.6 65.5,81.6C66.9,81.2 68.2,80.3 70.8,79.7C75.7,78.5 82.7,77.1 84.6,72C85.4,72.3 86,72.9 86.8,73.4C91.4,75.7 97.2,75.5 102,73.9C102.9,73.6 103.8,73.2 104.6,72.8C105.6,72.3 106.1,71.9 106.9,71.4C107.9,71.6 109.3,72.4 110.7,72.7C115,73.8 119.7,73.3 123.3,71.1C126.9,68.9 130.9,64.2 130.1,57.5C129.6,53.1 126.7,49.1 124,45.8L121.7,43.1C120.2,41.3 117.2,38.3 115.5,36.5C115.1,36 114.6,35.7 114.2,35.2C113.8,34.7 113.4,34.2 113,33.8C110.1,30.9 105.5,25.5 105.6,20.9C105.6,18.2 108.2,15.6 111.1,16.4C113.4,17 115.4,19.7 116.7,21.1C118.3,22.8 121.3,24.5 123.7,22C125.9,19.7 124.5,16.9 123.1,14.7C122.2,13.4 122.7,12 124.1,11.6C125.7,11.1 126.8,12.3 128.4,11C128.7,10.8 128.7,10.7 129.1,10.4C129.4,10.2 129.6,10.2 129.9,10C131,9.4 131.5,8.2 132.6,7.5C133.4,7 133.3,6.9 133.6,5.9C134.3,5.4 135.3,5.2 136.2,4.8C138,4.1 137.9,4.6 139.6,4.3C139,4.2 138.2,4.1 137.8,3.8C138,3.2 138.4,2.9 138.6,2.3C138,2.7 137.9,3 137.5,3.5C136.8,4.1 135,4.6 134.1,5C133,5.5 133.3,4.9 132.3,4.8C131.6,4.7 131.1,5.1 130.2,5C129.3,4.9 128.9,4.7 127.9,4.9C126.4,5.2 125.2,5.2 124.3,6.2C122.6,8 123.8,7.1 121.4,8.1C118.7,9.2 117.7,11.6 118.7,14.3C118.9,14.9 121.3,18.3 119.4,17.6C118.5,17.2 116.4,12.5 111.8,11.4C104,9.6 96.8,17.2 101.1,27.1C102.9,31.1 105.9,35 108.8,37.9L116.7,46.5C118.1,48 119.6,49.9 120.7,51.8C122.6,54.9 124.1,59.5 121.8,63C119.8,66 114,68.2 111.3,66.7C112.2,64.6 113,63.4 113.3,60.6C114,52.8 106.8,46.3 101.8,49.3C104,49.6 105.2,49.5 107.1,51C110,53.3 111.6,57.2 110.7,61C110.3,62.7 109.1,64.8 108.1,65.5C105.1,63.2 104.9,63.1 102.3,60.4C101.6,59.7 101.2,59.1 100.5,58.4C98.2,56.3 95,53.5 90.2,53.8C91,47.1 87.6,41.8 83.2,37.8C81.2,36 80.6,36 78.9,34.9C77.9,34.3 78.5,30.7 76.1,26.6C74.8,24.3 73.1,22.6 71,21.2C65.8,17.8 59.4,18.3 54.8,21.8C47.8,27 45.7,41.7 42.1,51.5C40.1,55.5 36.3,64 31,61.4C28.1,60 27.9,57.6 29,54C29.8,51.5 31.3,47.6 28.7,45.8C25.6,43.6 23.3,45.5 21.9,47.7C21.2,48.8 20.8,50.5 19.4,50.5C17.1,50.6 17.5,47.5 15.5,46.5L13.8,45.6C13.1,45.2 12.6,45.2 11.7,45C10.7,44.8 10.4,44.4 9.7,44.2C7.9,43.8 9.3,45.3 6.3,42.8C5.2,41.9 4.6,41.2 4,39.9L4.5,41.8L2.5,41.9C5.1,42.4 5.4,43 7.4,44.6C8.4,45.4 7.5,45.3 8.2,46.4C8.5,46.9 8.9,47.1 9.2,47.8C9.5,48.5 9.6,49.1 10,49.6C10.4,50.2 10.7,50.2 11.2,51C12.1,52.5 13.1,52.2 14.6,52.7C15.3,52.9 15.6,53.5 16.1,53.8C17,54.5 18.2,55.3 19.8,55.1C22,54.9 23.1,53.4 24,51.6C24.3,51 24.5,50.4 25.2,50.3C26,51 24.6,52.9 24,55.5C23.5,57.7 23.5,59.7 24.4,61.7C25.7,64.6 28.9,67.4 33.2,67.5C47.7,67.9 49,40.2 55.2,31.4C56.9,29 59.8,25.4 64.6,26.4C67.8,27.1 71.9,30.8 72,33.5C61.8,33.5 56.7,42.8 59.6,48.3C60,49 60.9,50.1 61.6,50.4C60.8,48.2 60,47.6 60.5,44.8C60.8,42.7 61.6,41.4 62.6,40.1C63.5,39 64.8,37.9 66.6,37.2C67.6,36.8 71.8,36.1 72.5,37.1C72.5,41 70.9,44.1 70.1,47.7C69.5,50.4 69.2,53.6 70.2,56.2C70.5,57.1 71.1,57.8 71.3,58.5C67.9,59.4 65.1,62.8 63.5,65.8C61.6,69.4 60.5,73.4 60.8,78.1C57.1,80.1 53.8,85.1 53,89.4C51.9,95.8 54.9,100.7 58.1,103.2C65.9,109.5 80.3,104.2 89.6,102.1C94,101.1 102.4,99.5 105.8,102.6C107.6,104.2 108.1,107.5 106,109.3C102.9,111.8 93.4,110.9 95.1,117.2C96.6,122.7 105,118.1 103.9,122.7C103.6,123.9 102.3,124.3 102.2,125.9C102.1,126.7 102.3,127.2 102.3,128C102.3,129.7 102.9,130.1 103.1,132.1C103.2,133 103.5,133.1 104,133.6C103.5,138.9 103.2,137.3 102.5,139.3Z" style="fill-rule:nonzero;"/>
    </g>
</svg>
