<?xml version="1.0" encoding="UTF-8" standalone="no"?>
<!DOCTYPE svg PUBLIC "-//W3C//DTD SVG 1.1//EN" "http://www.w3.org/Graphics/SVG/1.1/DTD/svg11.dtd">
<svg width="100%" height="100%" viewBox="0 0 290 200" version="1.1" xmlns="http://www.w3.org/2000/svg" xmlns:xlink="http://www.w3.org/1999/xlink" xml:space="preserve" xmlns:serif="http://www.serif.com/" style="fill-rule:evenodd;clip-rule:evenodd;stroke-linejoin:round;stroke-miterlimit:2;">
    <g transform="matrix(1.865096,0,0,1.856717,0,-0.525446)">
        <path d="M0,97.744L0,97.687C0,92.018 4.245,87.374 10.284,87.374C13.959,87.374 16.182,88.656 18.089,90.48L15.839,93.072C14.244,91.59 12.535,90.593 10.256,90.593C6.467,90.593 3.675,93.727 3.675,97.63L3.675,97.687C3.675,101.589 6.438,104.752 10.256,104.752C12.706,104.752 14.272,103.783 15.982,102.188L18.232,104.467C16.152,106.632 13.873,108 10.141,108C4.33,108 0,103.47 0,97.744Z" style="fill:white;fill-rule:nonzero;"/>
        <path d="M41.473,97.744L41.473,97.687C41.473,93.813 38.653,90.593 34.693,90.593C30.733,90.593 27.97,93.755 27.97,97.63L27.97,97.687C27.97,101.561 30.79,104.752 34.75,104.752C38.71,104.752 41.473,101.618 41.473,97.744ZM24.294,97.744L24.294,97.687C24.294,92.075 28.625,87.374 34.75,87.374C40.875,87.374 45.148,92.018 45.148,97.63L45.148,97.687C45.148,103.299 40.817,108 34.693,108C28.568,108 24.294,103.356 24.294,97.744Z" style="fill:white;fill-rule:nonzero;"/>
        <path d="M61.865,97.602C64.373,97.602 65.967,96.291 65.967,94.268L65.967,94.212C65.967,92.075 64.429,90.906 61.836,90.906L56.737,90.906L56.737,97.602L61.865,97.602ZM53.233,87.716L62.122,87.716C64.629,87.716 66.594,88.457 67.876,89.71C68.931,90.793 69.528,92.274 69.528,94.012L69.528,94.069C69.528,97.345 67.563,99.311 64.799,100.109L70.184,107.657L66.024,107.657L61.124,100.707L56.737,100.707L56.737,107.657L53.233,107.657L53.233,87.716Z" style="fill:white;fill-rule:nonzero;"/>
        <path d="M76.332,104.752L78.44,102.244C80.348,103.897 82.286,104.837 84.735,104.837C86.901,104.837 88.269,103.812 88.269,102.33L88.269,102.273C88.269,100.849 87.471,100.08 83.768,99.225C79.522,98.199 77.129,96.946 77.129,93.271L77.129,93.214C77.129,89.796 79.978,87.431 83.937,87.431C86.844,87.431 89.151,88.314 91.174,89.938L89.294,92.588C87.499,91.249 85.704,90.536 83.881,90.536C81.83,90.536 80.633,91.59 80.633,92.901L80.633,92.958C80.633,94.496 81.545,95.18 85.391,96.091C89.607,97.117 91.772,98.627 91.772,101.931L91.772,101.988C91.772,105.72 88.838,107.942 84.65,107.942C81.602,107.942 78.724,106.888 76.332,104.752Z" style="fill:white;fill-rule:nonzero;"/>
        <path d="M111.397,99.738L107.95,91.761L104.532,99.738L111.397,99.738ZM106.383,87.574L109.63,87.574L118.406,107.657L114.702,107.657L112.678,102.843L103.249,102.843L101.199,107.657L97.608,107.657L106.383,87.574Z" style="fill:white;fill-rule:nonzero;"/>
        <rect x="125.864" y="87.716" width="3.504" height="19.941" style="fill:white;fill-rule:nonzero;"/>
        <path d="M147.169,97.602C149.676,97.602 151.272,96.291 151.272,94.268L151.272,94.212C151.272,92.075 149.734,90.906 147.14,90.906L142.041,90.906L142.041,97.602L147.169,97.602ZM138.538,87.716L147.425,87.716C149.933,87.716 151.898,88.457 153.18,89.71C154.235,90.793 154.832,92.274 154.832,94.012L154.832,94.069C154.832,97.345 152.868,99.311 150.104,100.109L155.488,107.657L151.329,107.657L146.428,100.707L142.041,100.707L142.041,107.657L138.538,107.657L138.538,87.716Z" style="fill:white;fill-rule:nonzero;"/>
        <path d="M81.328,0.283C81.328,0.283 87.716,13.26 86.543,18.668C86.543,18.668 103.213,24.064 105.068,32.952C105.068,32.952 114.195,20.937 81.328,0.283Z" style="fill:white;fill-rule:nonzero;"/>
        <path d="M74.903,19.751C76.529,23.164 77.267,26.832 78.226,30.661L68.721,27.05C69.602,21.281 63.987,12.5 63.987,12.5L74.903,19.751Z" style="fill:white;fill-rule:nonzero;"/>
        <path d="M58.044,28.694C59.093,31.464 60.29,34.943 60.926,37.943L52.355,35.812C53.236,30.044 47.802,23.069 47.802,23.069L58.044,28.694Z" style="fill:white;fill-rule:nonzero;"/>
        <path d="M76.712,14.821C76.712,14.821 114.933,41.664 117.455,52.079C119.352,59.913 113.828,67.15 113.828,67.15C113.828,67.15 110.882,46.698 37.635,77.755C45.051,69.483 49.087,58.918 48.02,47.523C47.582,42.858 46.366,38.429 44.423,34.387L61.589,43.486C61.618,43.756 61.631,44.028 61.657,44.299C62.31,51.27 61.803,58.044 60.226,64.32C63.736,56.875 65.408,48.484 64.591,39.76C64.096,34.474 62.783,29.451 60.719,24.845L79.067,37.068C79.143,37.676 79.184,38.291 79.242,38.905C79.964,46.618 79.245,54.097 77.263,60.922C81.578,52.924 83.696,43.694 82.793,34.049C82.139,27.065 80.023,20.552 76.712,14.821Z" style="fill:white;fill-rule:nonzero;"/>
    </g>
</svg>
