<?xml version="1.0" encoding="UTF-8" standalone="no"?>
<!DOCTYPE svg PUBLIC "-//W3C//DTD SVG 1.1//EN" "http://www.w3.org/Graphics/SVG/1.1/DTD/svg11.dtd">
<svg width="100%" height="100%" viewBox="0 0 168 201" version="1.1" xmlns="http://www.w3.org/2000/svg" xmlns:xlink="http://www.w3.org/1999/xlink" xml:space="preserve" xmlns:serif="http://www.serif.com/" style="fill-rule:evenodd;clip-rule:evenodd;stroke-linejoin:round;stroke-miterlimit:2;">
    <g transform="matrix(1,0,0,1,-0.000007,0.000101)">
        <g transform="matrix(2.013385,0,0,2.000913,0,0)">
            <path d="M72.173,65.331C69.833,70.702 64.795,80.698 57.264,87.39C52.76,91.581 47.533,94.92 41.838,97.246C41.731,97.286 41.617,97.308 41.503,97.308C41.385,97.308 41.269,97.285 41.16,97.24C35.488,94.879 30.267,91.552 25.732,87.406C19.856,82.068 14.553,74.222 10.799,65.316C5.235,52.103 2.505,36.776 2.44,19.115C2.44,18.828 2.587,18.561 2.829,18.407C14.177,11.01 29.521,4.571 41.276,2.403C41.381,2.383 41.489,2.383 41.595,2.403C47.071,3.478 52.44,5.043 57.636,7.079C65.563,10.005 73.148,13.787 80.256,18.356C80.49,18.511 80.632,18.773 80.634,19.054C80.578,36.413 77.753,51.792 72.173,65.331M82.437,16.989C73.114,10.561 56.077,2.656 41.946,0.049C41.646,-0.016 41.335,-0.016 41.035,0.049C27.217,2.566 10.458,10.35 0.542,16.989C0.222,17.222 0.023,17.588 0.001,17.985C-0.053,38.353 3.604,54.425 8.664,66.404C11.902,74.127 17.202,83.018 24.163,89.297C29.086,93.835 34.807,97.422 41.035,99.877C41.33,99.98 41.651,99.98 41.946,99.877C48.189,97.45 53.915,93.86 58.818,89.297C65.861,83.031 71.129,73.724 74.317,66.404C80.015,52.577 83.036,36.38 82.981,17.985C82.966,17.586 82.765,17.217 82.437,16.989" style="fill:rgb(167,169,172);fill-rule:nonzero;"/>
        </g>
        <g transform="matrix(2.013385,0,0,2.000913,0,0)">
            <path d="M72.173,65.329C69.833,70.704 64.795,80.696 57.264,87.388C52.76,91.58 47.533,94.92 41.836,97.244C41.73,97.285 41.617,97.307 41.503,97.308C41.385,97.308 41.269,97.285 41.16,97.239C35.488,94.878 30.267,91.55 25.732,87.404C19.856,82.067 14.553,74.222 10.799,65.314C5.235,52.101 2.505,36.775 2.44,19.116C2.439,18.829 2.585,18.561 2.826,18.405C14.177,11.008 29.521,4.571 41.276,2.401C41.381,2.383 41.489,2.383 41.595,2.401C47.071,3.478 52.439,5.043 57.636,7.077C65.563,10.004 73.148,13.785 80.256,18.354C80.49,18.509 80.632,18.771 80.634,19.052C80.578,36.413 77.753,51.792 72.173,65.329" style="fill:rgb(237,28,36);fill-rule:nonzero;"/>
        </g>
        <g transform="matrix(2.013385,0,0,2.000913,0,0)">
            <path d="M55.829,22.042C56.2,22.076 56.567,22.143 56.926,22.242C57.334,22.483 57.337,23.06 57.601,23.528C55.987,23.795 55.462,22.63 54.694,21.779C54.961,21.803 55.38,21.941 55.829,22.042M23.945,60.84C19.533,54.889 18.651,47.002 21.639,40.224C28,24.723 45.199,28.94 46.817,29.574C46.786,28.136 47.825,26.879 49.243,26.639C49.671,26.548 50.111,26.524 50.546,26.568C50.669,26.577 50.728,26.659 50.63,26.681C48.979,27.111 47.713,27.979 47.787,29.524C47.854,30.981 49.352,32.021 50.594,32.247L50.589,32.247C51.166,32.362 51.766,32.279 52.292,32.014C52.305,32.007 52.318,31.999 52.328,31.988C52.521,31.857 52.729,31.751 52.948,31.672C53.455,31.504 53.998,31.479 54.518,31.6C54.675,31.633 54.953,31.876 55.2,31.86C55.364,31.854 55.603,31.597 55.83,31.591C56.812,31.558 58.969,32.335 59.029,32.848C59.074,33.212 58.498,33.646 58.206,33.864C57.878,34.112 57.519,34.316 57.139,34.472C57.041,34.511 57.095,34.54 57.129,34.537C58.859,34.323 61.949,33.208 61.461,35.292C61.423,35.455 61.375,35.615 61.317,35.771C61.312,35.79 61.313,35.827 61.362,35.81C63.045,35.229 63.579,33.743 63.346,31.747C63.343,31.718 63.311,31.709 63.298,31.734C63.149,31.974 62.96,32.188 62.74,32.365C62.74,32.358 62.739,32.351 62.736,32.345C62.732,31.78 62.774,30.944 62.416,30.551C62.403,30.535 62.381,30.553 62.385,30.577C62.539,31.407 62.038,32.23 61.229,32.473C60.637,31.447 59.952,30.477 59.184,29.575C59.177,29.569 59.168,29.565 59.159,29.565C59.14,29.565 59.125,29.58 59.125,29.598C59.125,29.599 59.125,29.599 59.125,29.599C59.132,29.931 59.101,30.262 59.033,30.586C59.028,30.61 59,30.619 58.991,30.599C58.783,30.055 58.284,29.672 57.704,29.612C57.313,29.557 56.887,29.688 56.424,29.612C55.829,29.52 55.134,29.09 55.092,28.631C55.016,27.889 56.36,27.541 57.036,27.365C57.219,27.782 57.38,28.209 57.517,28.644C57.542,28.71 57.567,28.684 57.582,28.673C58.373,27.964 59.37,27.525 60.428,27.42C60.729,27.411 61.409,27.532 61.51,27.745C61.755,28.243 61.142,28.841 60.939,29.032C60.571,29.373 60.742,29.337 60.762,29.329C61.679,28.96 62.513,28.41 63.213,27.712C63.63,28.46 63.817,29.314 63.75,30.167C63.75,30.168 63.75,30.168 63.75,30.168C63.75,30.192 63.77,30.212 63.794,30.212C63.805,30.212 63.815,30.208 63.823,30.2C64.665,29.287 64.689,27.88 64.607,26.281C65.414,26.565 66.125,27.07 66.661,27.738C66.721,27.808 66.758,27.788 66.714,27.712C66.252,26.891 65.597,26.194 64.805,25.684C64.49,25.546 64.189,25.378 63.906,25.182C63.704,24.982 63.455,24.28 63.188,24.234C62.844,24.171 62.403,24.555 61.992,24.585C61.283,24.634 60.895,24.142 60.755,23.44C59.02,23.933 58.348,22.856 57.951,21.557C57.907,21.291 57.848,21.028 57.775,20.768C57.642,20.467 56.957,20.146 56.599,20.008C56.076,19.805 55.509,19.742 54.954,19.824C54.472,19.975 53.98,20.095 53.483,20.182C52.052,20.129 50.657,19.723 49.422,19.001C46.036,17.191 43.047,14.722 40.631,11.739C40.534,11.627 40.515,11.713 40.545,11.789C42.139,15.534 44.886,18.676 48.385,20.756C44.582,19.761 41.025,17.991 37.94,15.555C37.875,15.502 37.794,15.476 37.904,15.622C39.301,17.423 40.92,19.04 42.724,20.434L42.779,20.467C40.186,21.514 36.363,21.933 33.281,22.621C33.147,22.65 33.105,22.709 33.22,22.709C35.03,22.833 36.83,23.079 38.606,23.447C38.591,23.447 38.577,23.453 38.562,23.453C31.519,23.732 25.422,25.774 21.157,29.721C21.101,29.77 21.139,29.822 21.214,29.792C22.227,29.341 23.271,28.961 24.338,28.657C23.286,29.621 22.24,30.606 21.268,31.654C19.864,33.212 19.258,33.091 18.574,32.038C18.049,31.45 18.052,29.654 18.756,29.274C19.616,29.546 20.183,28.789 20.082,27.995C19.936,26.856 18.651,26.062 17.876,25.54C17.791,25.485 17.739,25.498 17.797,25.557C18.194,25.967 18.767,26.376 18.907,26.985C18.965,27.236 18.95,27.716 18.697,27.788C18.297,27.903 18.061,27.46 17.668,27.519C17.326,27.574 17.168,28.175 17.098,28.589C17.018,29.111 16.988,29.639 17.007,30.167C17.017,30.426 17.111,30.827 16.917,31.027C16.681,30.911 16.63,30.606 16.525,30.377C15.944,29.476 15.679,28.408 15.77,27.341C15.937,27.279 16.253,27.361 16.373,27.253C16.344,26.57 16.025,25.932 15.498,25.498C14.787,24.84 13.797,24.57 12.85,24.776C12.808,24.789 12.793,24.827 12.83,24.835C13.499,24.936 14.763,25.074 14.774,25.737C14.78,25.996 14.469,26.358 14.383,26.567C14.029,27.795 14.275,29.119 15.046,30.138C15.388,30.593 15.878,31.016 15.588,31.859C15.197,31.782 14.827,31.621 14.504,31.387C14,31.18 13.562,30.841 13.234,30.406C12.979,29.926 12.961,29.436 12.633,29.068C11.659,27.986 10.101,27.631 8.755,28.184C8.711,28.208 8.716,28.26 8.764,28.256C9.838,28.227 10.818,28.33 11.248,29.035C11.461,29.463 11.583,29.929 11.608,30.406C11.623,30.597 11.567,30.865 11.669,31.027C11.845,31.316 12.381,31.266 12.694,31.442C13.116,31.689 13.368,32.343 13.839,32.752C13.962,32.862 14.093,32.961 14.232,33.048C14.952,33.484 16.453,33.8 17.036,34.386C17.909,35.266 17.464,36.758 17.132,37.726C16.724,38.754 16.499,39.846 16.468,40.951C16.466,40.995 16.516,41.034 16.54,41.012C17.363,40.056 18.324,39.228 19.392,38.557C18.34,40.734 17.493,43.003 16.859,45.335C16.268,47.445 15.41,50.953 16.733,52.968C16.753,53.001 16.804,52.998 16.809,52.965C16.891,52.268 16.911,51.511 17.372,51.19C18.72,54.915 20.962,58.254 23.901,60.912C23.975,60.978 24.011,60.941 23.945,60.84" style="fill:white;fill-rule:nonzero;"/>
        </g>
        <g transform="matrix(2.013385,0,0,2.000913,0,0)">
            <path d="M33.237,42.796C43.324,45.765 52.054,39.547 53.897,37.26C54.191,36.892 54.093,36.824 53.808,37.047C52.294,38.264 50.641,39.297 48.883,40.124C41.522,43.733 33.784,41.82 33.547,41.376C33.359,41.017 34.078,41.056 34.078,41.056C49.812,40.532 52.888,33.671 52.875,33.392C52.866,33.146 52.607,33.43 52.607,33.43C48.48,38.746 37.848,39.327 37.848,39.327C35.079,39.564 32.784,39.134 31.391,37.826C31.032,37.473 30.755,37.046 30.579,36.574C30.572,36.556 30.537,36.556 30.526,36.574C30.298,36.987 30.023,37.373 29.707,37.723C29.323,38.166 28.788,38.392 28.428,38.145C27.296,37.366 30.352,33.041 32.792,31.124C32.913,31.029 33.237,30.727 33.062,30.797C27.708,33.028 23.696,37.64 22.228,43.252C21.767,44.927 21.533,46.656 21.532,48.393C21.538,50.156 21.751,51.912 22.166,53.626C22.788,56.369 23.803,59.007 25.179,61.459C25.26,61.61 25.293,61.527 25.313,61.496C25.69,60.817 25.979,60.093 26.172,59.341C26.395,58.45 26.696,57.581 27.073,56.744C28.033,55.149 33.28,55.559 31.847,54.457C31.429,54.13 31.035,53.772 30.669,53.387C29.932,52.609 29.257,51.774 28.65,50.89C27.291,49.07 26.479,46.899 26.311,44.634C26.305,44.531 26.372,44.514 26.41,44.608C27.566,47.847 29.973,50.491 33.089,51.947C34.775,52.664 36.554,53.137 38.374,53.35C38.532,53.362 38.53,53.308 38.386,53.275C34.524,52.406 30.642,49.745 29.043,46.609C29.043,46.609 28.393,45.574 28.792,45.381C29.194,45.188 29.883,46.045 30.531,46.668C31.953,47.932 33.638,48.867 35.463,49.404C38.211,50.167 41.107,50.231 43.886,49.591C43.974,49.571 43.974,49.54 43.888,49.545C41.456,49.807 38.996,49.573 36.657,48.856C31.963,47.031 30.543,44.712 30.91,44.308C31.401,43.77 36.862,49.003 45.814,45.069C47.659,44.245 49.379,43.164 50.92,41.857C51.038,41.745 50.988,41.67 50.911,41.714C47.888,43.34 44.998,44.951 40.605,45.214C37.919,45.359 35.248,44.721 32.919,43.377C32.564,43.14 32.404,42.985 32.542,42.805C32.728,42.566 33.237,42.796 33.237,42.796" style="fill:white;fill-rule:nonzero;"/>
        </g>
        <g transform="matrix(2.013385,0,0,2.000913,0,0)">
            <path d="M68.773,58.014C68.31,58.298 67.769,58.432 67.226,58.394C66.81,58.343 66.39,58.34 65.973,58.385C65.89,58.406 65.813,58.445 65.747,58.501L65.741,58.503L65.738,58.506L65.736,58.51C65.023,59.159 64.601,58.889 64.66,58.405C64.687,58.038 64.778,57.678 64.927,57.341C65.265,56.749 65.558,56.133 65.802,55.497C65.887,54.93 65.77,54.352 65.472,53.863C65.352,53.589 64.985,52.641 66.239,52.683L66.249,52.68C66.396,52.67 66.539,52.619 66.659,52.533C67.513,51.867 67.999,50.831 67.967,49.749C67.971,49.681 67.938,49.652 67.916,49.707C67.635,50.172 67.216,50.538 66.718,50.754C66.326,50.902 65.952,51.093 65.602,51.324C65.506,51.409 65.441,51.525 65.42,51.653C65.069,52.527 64.639,52.154 64.573,52.049C64.293,51.573 63.91,51.167 63.45,50.861C62.051,50.094 60.452,49.766 58.864,49.92C58.096,49.982 57.326,50.058 56.576,50.159C56.227,50.205 55.876,50.245 55.529,50.278C54.098,50.32 55.086,48.7 56.277,48.386C57.164,48.134 58.121,48.358 58.804,48.977C58.854,49.03 58.906,49.047 58.882,48.988C58.437,47.86 56.441,43.81 49.518,44.358C49.426,44.365 49.397,44.424 49.478,44.441C50.905,44.688 52.29,45.134 53.594,45.763C54.004,45.993 54.827,46.589 54.636,47.45C54.263,48.297 53.66,49.022 52.894,49.541C52.289,49.766 51.615,49.715 51.051,49.402C49.719,48.657 48.833,47.304 48.682,45.786C48.677,45.76 48.642,45.694 48.631,45.78C48.559,46.092 48.523,46.41 48.523,46.73C48.523,48.824 50.082,50.617 52.155,50.908C52.806,51.059 52.774,52.233 52.636,52.801C52.469,53.474 51.471,53.525 50.693,53.417C49.98,53.308 49.307,53.021 48.734,52.584C47.804,51.869 47.018,50.985 46.418,49.977C46.334,49.844 46.264,49.846 46.318,49.975C46.888,51.377 47.827,52.597 49.037,53.507C50.555,54.634 52.423,55.192 54.311,55.083C55.543,55 56.757,54.745 57.918,54.326C58.015,54.293 58.007,54.22 57.907,54.22C56.291,54.214 54.305,54.203 53.86,53.119C53.708,52.744 53.623,51.184 54.417,51.272C55.573,51.321 56.731,51.247 57.872,51.05C58.961,51.047 60.044,51.219 61.078,51.561C61.836,51.813 62.49,52.309 62.938,52.97C63.753,54.168 63.577,56.222 63.27,57.935C62.965,59.385 62.51,60.8 61.912,62.156C60.808,64.908 58.6,69.086 56.848,70.628C54.552,72.406 51.88,73.637 49.037,74.226C47.743,74.564 46.42,74.772 45.085,74.847C41.937,74.988 39.398,74.549 37.728,73.066C36.926,72.303 36.307,71.369 35.918,70.332C35.416,67.776 36.82,67.054 40.226,68.098C41.305,68.429 42.005,67.464 42.792,67.446C43.196,67.438 43.497,67.718 43.875,67.626C44.126,67.563 44.344,67.093 44.568,66.795C44.779,66.49 45.045,66.227 45.353,66.02C46.342,65.454 47.354,66.119 48.059,66.536C48.126,66.575 48.183,66.531 48.144,66.474C47.144,65.198 45.403,64.744 43.907,65.367C43.58,65.525 43.297,65.944 42.911,66.17C42.201,66.445 41.429,66.516 40.681,66.376C40.409,66.362 40.109,66.444 39.895,66.26C40.1,65.239 41.075,65.206 41.794,64.77C42.977,64.178 43.784,63.027 43.937,61.713C43.951,61.514 43.867,61.229 44.026,61.027C44.175,60.836 44.548,60.81 44.901,60.847C45.389,60.955 45.864,61.115 46.318,61.325C46.417,61.364 46.178,61.11 46.075,61.027C44.728,59.923 42.264,60.445 41.674,61.65C41.579,61.836 42.141,61.88 42.189,62.126C42.238,62.409 41.841,62.801 41.645,63.019C41.158,63.52 40.611,63.959 40.017,64.326C39.719,64.524 39.462,64.866 39.111,64.831C39.328,64.258 39.623,63.718 39.987,63.225C40.195,62.815 40.73,61.738 40.439,61.292C40.258,61.018 39.374,61.167 39.232,60.847C39.117,60.594 39.331,60.259 39.471,60.105C39.994,59.676 40.622,59.397 41.29,59.295C41.37,59.278 41.329,59.245 41.226,59.251C40.025,59.309 38.187,59.708 37.726,60.612C37.622,60.786 37.568,60.984 37.568,61.186C37.568,61.7 37.919,62.151 38.417,62.277C38.7,63.183 38.168,64.836 36.968,64.978C35.352,65.171 34.15,64.118 34.826,61.305C34.832,61.283 34.828,61.198 34.763,61.237C34.703,61.281 34.646,61.329 34.593,61.382C34.496,61.468 34.415,61.568 34.319,61.65C33.21,62.633 30.872,64.138 28.814,63.173C28.421,62.963 28.101,62.639 27.895,62.244C26.931,60.144 29.146,58.64 30.809,58.933C31.522,59.058 32.18,59.578 32.029,60.313C31.894,60.839 31.393,61.193 30.852,61.147C30.499,61.14 30.158,61.016 29.883,60.796C29.551,60.494 29.497,60.171 29.464,60.283C28.909,62.786 32.338,62.591 33.553,61.413C34.764,60.372 35.037,58.583 34.191,57.227C33.554,56.359 32.486,55.91 31.419,56.062C30.31,56.111 29.228,56.421 28.26,56.966C27.351,57.666 27.141,59.111 26.871,60.283C26.672,61.456 26.151,62.551 25.366,63.446C25.343,63.48 25.365,63.514 25.422,63.504C25.967,63.438 26.513,63.635 26.89,64.035C27.645,64.778 26.317,64.173 25.427,64.719C25.422,64.721 25.418,64.724 25.415,64.728C25.398,64.735 25.381,64.745 25.363,64.752C23.605,65.89 22.491,67.799 22.362,69.889C22.346,70.018 22.401,70.079 22.454,69.983C23.074,69.134 23.944,68.5 24.942,68.17C25.724,67.953 26.479,67.65 27.193,67.266C27.436,67.085 27.596,66.815 27.638,66.516L27.64,66.512C27.809,65.836 28.465,65.759 28.439,66.376C28.403,67.308 27.726,68.035 28.138,69.112C28.568,70.241 29.765,70.792 30.789,71.457C31.013,71.606 31.572,72.052 29.964,72.576C29.948,72.582 29.931,72.588 29.914,72.592C29.894,72.6 29.878,72.605 29.856,72.613C29.816,72.624 29.779,72.643 29.745,72.668C29.718,72.681 29.692,72.688 29.663,72.705C28.175,73.665 27.231,75.28 27.125,77.048C27.111,77.16 27.158,77.21 27.2,77.131C27.725,76.412 28.463,75.874 29.308,75.595C29.968,75.411 30.606,75.154 31.21,74.83C31.393,74.696 31.521,74.499 31.57,74.277L31.572,74.274C32.027,72.958 32.436,73.559 32.509,73.945C32.563,74.357 32.697,74.755 32.902,75.117C33.435,75.926 34.687,75.828 35.857,76.036C36.274,76.113 36.744,76.449 35.778,76.942L35.776,76.949C35.674,77.003 35.579,77.07 35.493,77.148C34.297,78.376 33.755,80.103 34.034,81.795C34.045,81.901 34.1,81.942 34.124,81.853C34.466,81.062 35.046,80.397 35.783,79.952C36.367,79.636 36.913,79.257 37.411,78.82C37.569,78.636 37.647,78.396 37.628,78.155L37.634,78.151C37.571,76.89 38.237,77.109 38.437,77.432C38.792,78.004 39.071,78.634 39.808,78.893C40.444,79.012 41.102,78.918 41.678,78.625C42.123,78.502 42.576,78.411 43.034,78.355C43.786,78.256 43.532,78.974 43.124,79.507C43.109,79.524 43.094,79.541 43.081,79.56L43.058,79.591C43.052,79.599 43.054,79.604 43.051,79.612C43.019,79.655 42.992,79.701 42.968,79.749C42.412,81.093 42.528,82.624 43.282,83.867C43.324,83.95 43.379,83.963 43.372,83.886C43.391,83.155 43.637,82.449 44.078,81.866C44.437,81.434 44.748,80.963 45.004,80.462C45.052,80.321 45.057,80.169 45.019,80.025C45.019,80.017 45.019,80.009 45.019,80.001C45.012,79.989 45.007,79.976 45.002,79.963C44.994,79.941 44.987,79.92 44.978,79.896C44.539,78.73 45.19,78.529 45.716,78.713C46.584,79.026 47.534,79.026 48.402,78.713C49.101,78.391 49.744,77.957 50.303,77.427C50.825,76.908 51.413,76.459 52.051,76.091C52.514,75.929 52.789,76.188 52.659,77.001C52.657,77.006 52.661,77.01 52.661,77.015C52.631,77.198 52.656,77.385 52.73,77.554C53.307,78.737 54.415,79.577 55.711,79.812C55.792,79.832 55.834,79.801 55.777,79.76C55.293,79.31 54.963,78.72 54.833,78.072C54.755,77.569 54.622,77.076 54.436,76.602C54.393,76.529 54.338,76.465 54.272,76.412C54.259,76.391 54.238,76.375 54.215,76.367L54.213,76.363L54.21,76.361C54.155,76.329 54.098,76.302 54.039,76.28C53.192,75.836 53.509,75.194 54.373,74.996C56.062,74.612 57.991,74.213 58.897,73.067C59.372,72.307 59.68,71.455 59.799,70.568C59.965,69.796 60.177,69.035 60.434,68.289C60.534,68.001 60.644,67.124 61.986,68.203L61.99,68.203C62.133,68.338 62.316,68.426 62.511,68.453C63.82,68.589 65.119,68.093 66.004,67.119C66.065,67.062 66.062,67.008 65.997,67.036C65.359,67.208 64.683,67.176 64.064,66.944C63.595,66.743 63.106,66.596 62.605,66.503C62.542,66.5 62.479,66.506 62.417,66.521C62.409,66.523 62.403,66.52 62.394,66.521C60.742,66.819 61.563,65.843 61.702,65.634C62.148,64.958 62.813,64.423 63.27,63.76C63.848,62.71 64.205,61.552 64.317,60.358C64.36,60.099 64.531,59.429 65.871,59.864C65.932,59.896 65.997,59.919 66.065,59.934C66.074,59.938 66.082,59.938 66.092,59.941L66.094,59.938C66.18,59.952 66.268,59.955 66.355,59.945C67.42,59.748 68.329,59.053 68.798,58.076C68.832,58.021 68.818,57.977 68.773,58.014" style="fill:white;fill-rule:nonzero;"/>
        </g>
    </g>
</svg>
