<?xml version="1.0" encoding="UTF-8" standalone="no"?>
<!DOCTYPE svg PUBLIC "-//W3C//DTD SVG 1.1//EN" "http://www.w3.org/Graphics/SVG/1.1/DTD/svg11.dtd">
<svg width="100%" height="100%" viewBox="0 0 263 200" version="1.1" xmlns="http://www.w3.org/2000/svg" xmlns:xlink="http://www.w3.org/1999/xlink" xml:space="preserve" xmlns:serif="http://www.serif.com/" style="fill-rule:evenodd;clip-rule:evenodd;stroke-linejoin:round;stroke-miterlimit:2;">
    <g id="TT_Premium_logo_en_2" transform="matrix(0.756142,0,0,-0.757169,-35.531281,247.208035)">
        <rect id="path12" x="309.46" y="277.276" width="65.618" height="49.214" style="fill:white;fill-rule:nonzero;"/>
        <g id="g14" transform="matrix(1,0,0,1,243.8423,326.4897)">
            <path id="path16" d="M0,0L0,-164.956L65.618,-164.956L65.618,-49.214L0,0Z" style="fill:white;fill-rule:nonzero;"/>
        </g>
        <g id="g18" transform="matrix(1,0,0,1,178.2285,326.4897)">
            <path id="path20" d="M0,0L65.614,0L131.232,-49.214L0,-49.214L0,0Z" style="fill:white;fill-rule:nonzero;"/>
        </g>
        <g id="g22" transform="matrix(1,0,0,1,112.6084,326.4897)">
            <path id="path24" d="M0,0L0,-164.956L65.62,-164.956L65.62,-49.214L0,0Z" style="fill:white;fill-rule:nonzero;"/>
        </g>
        <g id="g26" transform="matrix(1,0,0,1,46.9902,326.4897)">
            <path id="path28" d="M0,0L65.618,0L131.238,-49.214L0,-49.214L0,0Z" style="fill:white;fill-rule:nonzero;"/>
        </g>
        <g id="g30">
            <g id="g32">
                <g id="g38" transform="matrix(1,0,0,1,79.6172,96.8154)">
                    <path id="path40" d="M0,0L-5.102,0L-5.102,3.494L0,3.494L0,13.771L4.193,13.771L4.193,3.494L10.769,3.494L10.769,0L4.193,0L4.193,-26.637C4.193,-29.575 5.453,-30.55 8.182,-30.55C9.02,-30.55 9.858,-30.413 10.769,-30.135L10.769,-33.629C10.277,-33.908 9.229,-34.047 7.83,-34.047C2.17,-34.047 -0,-32.508 -0,-27.549L0,0Z" style="fill:white;fill-rule:nonzero;"/>
                </g>
                <g id="g42" transform="matrix(1,0,0,1,93.2354,113.1045)">
                    <path id="path44" d="M0,0L4.196,0L4.196,-17.967L4.335,-17.967C5.385,-14.191 9.021,-11.954 13.425,-11.954C19.087,-11.954 22.932,-14.894 22.932,-21.883L22.932,-49.918L18.735,-49.918L18.735,-23.07C18.735,-17.967 16.64,-15.451 12.374,-15.451C7.48,-15.451 4.196,-19.225 4.196,-24.96L4.196,-49.918L0,-49.918L0,0Z" style="fill:white;fill-rule:nonzero;"/>
                </g>
                <g id="g46" transform="matrix(1,0,0,1,140.835,85.0693)">
                    <path id="path48" d="M0,0C-0.139,9.229 -2.726,12.584 -7.899,12.584C-13.073,12.584 -15.66,9.229 -15.799,0L0,0ZM4.127,-9.578C3.497,-17.479 -0.839,-22.72 -7.827,-22.72C-15.66,-22.72 -20.273,-17.268 -20.273,-3.287C-20.273,9.579 -15.66,16.078 -7.478,16.078C0.771,16.078 4.477,10.418 4.477,-1.959L4.477,-3.495L-15.799,-3.495L-15.799,-5.242C-15.799,-15.939 -12.024,-19.226 -7.899,-19.226C-3.492,-19.226 -0.769,-16.079 -0.067,-9.578L4.127,-9.578Z" style="fill:white;fill-rule:nonzero;"/>
                </g>
                <g id="g50" transform="matrix(1,0,0,1,149.7061,100.3096)">
                    <path id="path52" d="M0,0L4.194,0L4.194,-5.801L4.336,-5.801C5.942,-1.677 9.368,0.838 13.703,0.838C14.191,0.838 14.681,0.769 15.172,0.63L15.172,-3.566C14.472,-3.427 13.772,-3.355 13.143,-3.355C8.529,-3.355 4.194,-6.713 4.194,-13.915L4.194,-37.123L0,-37.123L0,0Z" style="fill:white;fill-rule:nonzero;"/>
                </g>
                <g id="g54" transform="matrix(1,0,0,1,167.7275,100.3096)">
                    <path id="path56" d="M0,0L3.777,0L3.777,-5.174L3.916,-5.174C5.875,-1.049 9.229,0.838 13.355,0.838C17.829,0.838 20.553,-1.888 21.113,-5.661L21.255,-5.661C22.929,-1.537 25.939,0.838 30.691,0.838C35.865,0.838 39.29,-2.096 39.29,-8.739L39.29,-37.123L35.097,-37.123L35.097,-9.366C35.097,-4.963 33.067,-2.654 29.296,-2.654C25.099,-2.654 21.743,-6.434 21.743,-12.165L21.743,-37.123L17.55,-37.123L17.55,-9.366C17.55,-4.963 15.519,-2.654 11.746,-2.654C7.552,-2.654 4.193,-6.434 4.193,-12.165L4.193,-37.123L0,-37.123L0,0Z" style="fill:white;fill-rule:nonzero;"/>
                </g>
                <g id="g58" transform="matrix(1,0,0,1,230.1548,84.1611)">
                    <path id="path60" d="M0,0L-0.142,0C-0.563,-1.258 -2.939,-2.026 -4.616,-2.448L-8.113,-3.358C-12.31,-4.479 -14.475,-6.643 -14.475,-11.045C-14.475,-15.384 -12.234,-18.316 -8.599,-18.316C-3.497,-18.316 0,-14.472 0,-7.83L0,0ZM-17.757,5.102C-17.757,12.723 -14.125,16.985 -6.297,16.985C1.396,16.985 4.188,13.004 4.188,7.132L4.188,-14.824C4.188,-16.92 4.894,-17.897 6.361,-17.897L7.552,-17.897L7.552,-20.976C6.778,-21.255 6.15,-21.392 5.59,-21.392C2.304,-21.392 0.211,-20.625 0.211,-16.779L0.211,-15.521L0.066,-15.521C-1.609,-20.414 -5.387,-21.813 -9.509,-21.813C-16.01,-21.813 -18.945,-17.758 -18.945,-11.327C-18.945,-6.434 -16.713,-2.518 -11.466,-1.052L-3.569,1.187C-0.63,2.026 0,2.725 0,7.06C0,11.812 -2.656,13.49 -6.437,13.49C-11.396,13.49 -13.564,10.486 -13.564,5.102L-17.757,5.102Z" style="fill:white;fill-rule:nonzero;"/>
                </g>
                <rect id="path62" x="241.03" y="63.187" width="4.191" height="49.919" style="fill:white;fill-rule:nonzero;"/>
                <g id="g64" transform="matrix(1,0,0,1,253.2622,96.8154)">
                    <path id="path66" d="M0,0L-5.104,0L-5.104,3.494L0,3.494L0,13.771L4.191,13.771L4.191,3.494L10.764,3.494L10.764,0L4.191,0L4.191,-26.637C4.191,-29.575 5.451,-30.55 8.18,-30.55C9.018,-30.55 9.856,-30.413 10.764,-30.135L10.764,-33.629C10.277,-33.908 9.227,-34.047 7.83,-34.047C2.168,-34.047 -0,-32.508 -0,-27.549L0,0Z" style="fill:white;fill-rule:nonzero;"/>
                </g>
                <g id="g68" transform="matrix(1,0,0,1,284.562,84.1611)">
                    <path id="path70" d="M0,0L-0.144,0C-0.561,-1.258 -2.937,-2.026 -4.613,-2.448L-8.11,-3.358C-12.307,-4.479 -14.475,-6.643 -14.475,-11.045C-14.475,-15.384 -12.237,-18.316 -8.602,-18.316C-3.497,-18.316 0,-14.472 0,-7.83L0,0ZM-17.758,5.102C-17.758,12.723 -14.127,16.985 -6.295,16.985C1.398,16.985 4.191,13.004 4.191,7.132L4.191,-14.824C4.191,-16.92 4.891,-17.897 6.359,-17.897L7.55,-17.897L7.55,-20.976C6.778,-21.255 6.15,-21.392 5.59,-21.392C2.307,-21.392 0.208,-20.625 0.208,-16.779L0.208,-15.521L0.069,-15.521C-1.609,-20.414 -5.385,-21.813 -9.509,-21.813C-16.012,-21.813 -18.948,-17.758 -18.948,-11.327C-18.948,-6.434 -16.712,-2.518 -11.469,-1.052L-3.569,1.187C-0.63,2.026 0,2.725 0,7.06C0,11.812 -2.659,13.49 -6.434,13.49C-11.399,13.49 -13.562,10.486 -13.562,5.102L-17.758,5.102Z" style="fill:white;fill-rule:nonzero;"/>
                </g>
                <g id="g72" transform="matrix(1,0,0,1,295.1226,113.1045)">
                    <path id="path74" d="M0,0L4.191,0L4.191,-31.254L4.333,-31.254L18.735,-12.793L23.909,-12.793L12.724,-26.564L25.937,-49.918L20.764,-49.918L9.718,-30.342L4.191,-36.912L4.191,-49.918L0,-49.918L0,0Z" style="fill:white;fill-rule:nonzero;"/>
                </g>
                <g id="g76" transform="matrix(1,0,0,1,340.3462,85.0693)">
                    <path id="path78" d="M0,0C-0.139,9.229 -2.729,12.584 -7.899,12.584C-13.076,12.584 -15.66,9.229 -15.799,0L0,0ZM4.124,-9.578C3.494,-17.479 -0.839,-22.72 -7.828,-22.72C-15.66,-22.72 -20.275,-17.268 -20.275,-3.287C-20.275,9.579 -15.66,16.078 -7.48,16.078C0.771,16.078 4.474,10.418 4.474,-1.959L4.474,-3.495L-15.799,-3.495L-15.799,-5.242C-15.799,-15.939 -12.024,-19.226 -7.899,-19.226C-3.495,-19.226 -0.77,-16.079 -0.069,-9.578L4.124,-9.578Z" style="fill:white;fill-rule:nonzero;"/>
                </g>
                <g id="g80" transform="matrix(1,0,0,1,387.7563,317.7148)">
                    <path id="path82" d="M0,0L0.559,0C1.184,0 1.643,0.231 1.643,0.691C1.643,1.153 1.282,1.417 0.625,1.417C0.36,1.417 0.164,1.384 0,1.384L0,0ZM-0.034,-3.027L-1.482,-3.027L-1.482,2.273C-1.054,2.336 -0.265,2.436 0.725,2.436C1.843,2.436 2.337,2.273 2.696,2.042C3.061,1.811 3.289,1.417 3.289,0.892C3.289,0.33 2.798,-0.132 2.106,-0.327L2.106,-0.394C2.664,-0.591 2.962,-1.018 3.123,-1.745C3.289,-2.535 3.423,-2.83 3.522,-3.027L1.907,-3.027C1.744,-2.83 1.643,-2.37 1.514,-1.808C1.414,-1.25 1.116,-1.018 0.526,-1.018L-0.034,-1.018L-0.034,-3.027ZM-3.884,-0.295C-3.884,-2.925 -1.909,-5.047 0.725,-5.047C3.358,-5.047 5.296,-2.925 5.296,-0.295C5.296,2.339 3.358,4.459 0.725,4.459C-1.909,4.459 -3.884,2.339 -3.884,-0.295M7.052,-0.259C7.052,-3.731 4.271,-6.473 0.725,-6.473C-2.787,-6.473 -5.637,-3.731 -5.637,-0.259C-5.637,3.141 -2.787,5.884 0.725,5.884C4.271,5.884 7.052,3.141 7.052,-0.259" style="fill:white;fill-rule:nonzero;"/>
                </g>
            </g>
        </g>
    </g>
</svg>
